HIERARCHY
ROOT Hips
{
    OFFSET   0.000000   0.000000   0.000000
    CHANNELS 6 Xposition Yposition Zposition Zrotation Xrotation Yrotation
    JOINT Chest
    {
        OFFSET   0.000000   8.007230   0.000000
        CHANNELS 3 Zrotation Xrotation Yrotation
        JOINT Chest2
        {
            OFFSET   0.000000  22.077100   0.000000
            CHANNELS 3 Zrotation Xrotation Yrotation
            JOINT Neck
            {
                OFFSET   0.000000  23.255100   0.000000
                CHANNELS 3 Zrotation Xrotation Yrotation
                JOINT Head
                {
                    OFFSET   0.000000  14.370100   1.956600
                    CHANNELS 3 Zrotation Xrotation Yrotation
                    End Site
                    {
                        OFFSET   0.000000  19.566000   0.000000
                    }
                }
            }
            JOINT LeftCollar
            {
                OFFSET   3.911900  19.017000  -0.467063
                CHANNELS 3 Zrotation Xrotation Yrotation
                JOINT LeftShoulder
                {
                    OFFSET  10.383700   0.000000   0.000000
                    CHANNELS 3 Zrotation Xrotation Yrotation
                    JOINT LeftElbow
                    {
                        OFFSET  26.662100   0.001193   0.000980
                        CHANNELS 3 Zrotation Xrotation Yrotation
                        JOINT LeftWrist
                        {
                            OFFSET  28.869000  -0.000059  -0.000082
                            CHANNELS 3 Zrotation Xrotation Yrotation
                            JOINT LeftFinger0
                            {
                                OFFSET   2.044650  -2.323450   3.252850
                                CHANNELS 3 Zrotation Xrotation Yrotation
                                JOINT LeftFinger01
                                {
                                    OFFSET   3.088130   0.000000   0.000000
                                    CHANNELS 3 Zrotation Xrotation Yrotation
                                    JOINT LeftFinger02
                                    {
                                        OFFSET   2.639460   0.000000   0.000000
                                        CHANNELS 3 Zrotation Xrotation Yrotation
                                        End Site
                                        {
                                            OFFSET   2.582190   0.000000   0.000000
                                        }
                                    }
                                }
                            }
                            JOINT LeftFinger1
                            {
                                OFFSET   8.364480   0.000000   3.252850
                                CHANNELS 3 Zrotation Xrotation Yrotation
                                JOINT LeftFinger11
                                {
                                    OFFSET   4.646930   0.000000   0.000000
                                    CHANNELS 3 Zrotation Xrotation Yrotation
                                    JOINT LeftFinger12
                                    {
                                        OFFSET   2.323470   0.000000   0.000000
                                        CHANNELS 3 Zrotation Xrotation Yrotation
                                        End Site
                                        {
                                            OFFSET   2.273050   0.000000   0.000000
                                        }
                                    }
                                }
                            }
                            JOINT LeftFinger2
                            {
                                OFFSET   8.364490   0.000016   1.078090
                                CHANNELS 3 Zrotation Xrotation Yrotation
                                JOINT LeftFinger21
                                {
                                    OFFSET   5.111610   0.000000   0.000000
                                    CHANNELS 3 Zrotation Xrotation Yrotation
                                    JOINT LeftFinger22
                                    {
                                        OFFSET   2.788150   0.000016   0.000000
                                        CHANNELS 3 Zrotation Xrotation Yrotation
                                        End Site
                                        {
                                            OFFSET   2.727660   0.000000   0.000000
                                        }
                                    }
                                }
                            }
                            JOINT LeftFinger3
                            {
                                OFFSET   7.899780   0.000015  -1.078090
                                CHANNELS 3 Zrotation Xrotation Yrotation
                                JOINT LeftFinger31
                                {
                                    OFFSET   4.646930   0.000000   0.000000
                                    CHANNELS 3 Zrotation Xrotation Yrotation
                                    JOINT LeftFinger32
                                    {
                                        OFFSET   2.323470   0.000000   0.000000
                                        CHANNELS 3 Zrotation Xrotation Yrotation
                                        End Site
                                        {
                                            OFFSET   2.273050   0.000000   0.000000
                                        }
                                    }
                                }
                            }
                            JOINT LeftFinger4
                            {
                                OFFSET   7.435090   0.000000  -3.252850
                                CHANNELS 3 Zrotation Xrotation Yrotation
                                JOINT LeftFinger41
                                {
                                    OFFSET   3.717550   0.000000   0.000000
                                    CHANNELS 3 Zrotation Xrotation Yrotation
                                    JOINT LeftFinger42
                                    {
                                        OFFSET   1.858770   0.000000   0.000000
                                        CHANNELS 3 Zrotation Xrotation Yrotation
                                        End Site
                                        {
                                            OFFSET   1.818440   0.000000   0.000000
                                        }
                                    }
                                }
                            }
                        }
                    }
                }
            }
            JOINT RightCollar
            {
                OFFSET  -3.911910  19.017000  -0.467062
                CHANNELS 3 Zrotation Xrotation Yrotation
                JOINT RightShoulder
                {
                    OFFSET -10.383700   0.000014   0.000000
                    CHANNELS 3 Zrotation Xrotation Yrotation
                    JOINT RightElbow
                    {
                        OFFSET -26.662100   0.001225   0.001091
                        CHANNELS 3 Zrotation Xrotation Yrotation
                        JOINT RightWrist
                        {
                            OFFSET -28.869000  -0.000020  -0.000085
                            CHANNELS 3 Zrotation Xrotation Yrotation
                            JOINT RightFinger0
                            {
                                OFFSET  -2.044650  -2.323490   3.252850
                                CHANNELS 3 Zrotation Xrotation Yrotation
                                JOINT RightFinger01
                                {
                                    OFFSET  -3.088130   0.000000   0.000000
                                    CHANNELS 3 Zrotation Xrotation Yrotation
                                    JOINT RightFinger02
                                    {
                                        OFFSET  -2.639460   0.000000   0.000000
                                        CHANNELS 3 Zrotation Xrotation Yrotation
                                        End Site
                                        {
                                            OFFSET  -2.582190   0.000000   0.000000
                                        }
                                    }
                                }
                            }
                            JOINT RightFinger1
                            {
                                OFFSET  -8.364480   0.000000   3.252850
                                CHANNELS 3 Zrotation Xrotation Yrotation
                                JOINT RightFinger11
                                {
                                    OFFSET  -4.646930   0.000000   0.000000
                                    CHANNELS 3 Zrotation Xrotation Yrotation
                                    JOINT RightFinger12
                                    {
                                        OFFSET  -2.323470   0.000000   0.000000
                                        CHANNELS 3 Zrotation Xrotation Yrotation
                                        End Site
                                        {
                                            OFFSET  -2.273050   0.000000   0.000000
                                        }
                                    }
                                }
                            }
                            JOINT RightFinger2
                            {
                                OFFSET  -8.364480   0.000000   1.078090
                                CHANNELS 3 Zrotation Xrotation Yrotation
                                JOINT RightFinger21
                                {
                                    OFFSET  -5.111620   0.000000   0.000000
                                    CHANNELS 3 Zrotation Xrotation Yrotation
                                    JOINT RightFinger22
                                    {
                                        OFFSET  -2.788160   0.000000   0.000000
                                        CHANNELS 3 Zrotation Xrotation Yrotation
                                        End Site
                                        {
                                            OFFSET  -2.727660   0.000000   0.000000
                                        }
                                    }
                                }
                            }
                            JOINT RightFinger3
                            {
                                OFFSET  -7.899780   0.000000  -1.078090
                                CHANNELS 3 Zrotation Xrotation Yrotation
                                JOINT RightFinger31
                                {
                                    OFFSET  -4.646930   0.000000   0.000000
                                    CHANNELS 3 Zrotation Xrotation Yrotation
                                    JOINT RightFinger32
                                    {
                                        OFFSET  -2.323470   0.000000   0.000000
                                        CHANNELS 3 Zrotation Xrotation Yrotation
                                        End Site
                                        {
                                            OFFSET  -2.273050   0.000000   0.000000
                                        }
                                    }
                                }
                            }
                            JOINT RightFinger4
                            {
                                OFFSET  -7.435090   0.000000  -3.252850
                                CHANNELS 3 Zrotation Xrotation Yrotation
                                JOINT RightFinger41
                                {
                                    OFFSET  -3.717550   0.000000   0.000000
                                    CHANNELS 3 Zrotation Xrotation Yrotation
                                    JOINT RightFinger42
                                    {
                                        OFFSET  -1.858760   0.000000   0.000000
                                        CHANNELS 3 Zrotation Xrotation Yrotation
                                        End Site
                                        {
                                            OFFSET  -1.818440   0.000000   0.000000
                                        }
                                    }
                                }
                            }
                        }
                    }
                }
            }
        }
    }
    JOINT LeftHip
    {
        OFFSET   9.783030   0.000000   0.000000
        CHANNELS 3 Zrotation Xrotation Yrotation
        JOINT LeftKnee
        {
            OFFSET   0.000063 -41.789100   0.000608
            CHANNELS 3 Zrotation Xrotation Yrotation
            JOINT LeftAnkle
            {
                OFFSET   0.000048 -41.133200  -0.000184
                CHANNELS 3 Zrotation Xrotation Yrotation
                JOINT LeftToe
                {
                    OFFSET   0.000000  -6.358960  14.674500
                    CHANNELS 3 Zrotation Xrotation Yrotation
                    End Site
                    {
                        OFFSET   0.000000   0.000000   3.913200
                    }
                }
            }
        }
    }
    JOINT RightHip
    {
        OFFSET  -9.783030   0.000000   0.000000
        CHANNELS 3 Zrotation Xrotation Yrotation
        JOINT RightKnee
        {
            OFFSET   0.000071 -41.789100   0.001239
            CHANNELS 3 Zrotation Xrotation Yrotation
            JOINT RightAnkle
            {
                OFFSET   0.000037 -41.133200  -0.000166
                CHANNELS 3 Zrotation Xrotation Yrotation
                JOINT RightToe
                {
                    OFFSET   0.000000  -6.358960  14.674500
                    CHANNELS 3 Zrotation Xrotation Yrotation
                    End Site
                    {
                        OFFSET   0.000000   0.000000   3.913200
                    }
                }
            }
        }
    }
}
MOTION
Frames: 5
Frame Time:   0.016667
 -1.542780  89.372600  -1.494800   3.480380 -14.850900  14.962200   0.009601  15.171000   5.961700  -1.782970  30.252700  12.622900   1.519680  -8.385920   0.221753   2.651030 -16.968500 -23.217000  -5.622960 -11.876500  -2.683130 -64.873400  29.271200  -9.595450  -3.805260 -13.555900 -23.581900  16.367300 -25.736000   8.563890  39.449600  32.521500 -65.103300 -29.967900   0.005106   0.002985  -9.983930   0.002934  -0.003140 -30.130500   5.583430  -9.516510 -25.032700   0.003253  -0.002059 -17.522900   0.007782   0.000062 -28.534400  -0.026997   0.049807 -36.550400   0.000209   0.002566 -24.342600  -0.002837   0.001320 -28.203000  -0.026696   0.050142 -33.421100   0.000274   0.000415 -22.258400  -0.003630   0.005156 -32.803900  -0.030680   0.048117 -49.205800   0.000089   0.001894 -32.771100  -0.003773  -0.001063   4.701150 -11.879900   6.965430  30.596600  -7.811730  39.319100 -20.832800 -22.902100   7.770330 -53.936400 -46.634700 -25.861700 -41.140100  43.589900  84.598600  38.246700  -0.003355  -0.000909  14.123400  -0.000500  -0.002606  88.996200   5.002900   0.087488  87.088900  -0.005246   0.004241  65.316600  -0.006969   0.005355  89.000000   0.002411   0.002719 109.174000  -0.002544   0.003606  79.994400   0.002666   0.002613  88.995500  -4.994920  -0.095154 109.999000  -0.003093   0.003599  80.000000   0.002522   0.002802  88.984600  -9.992010  -0.176293 110.000000   0.001552  -0.006705  80.000000  -0.005764  -0.001714   0.720730  14.969100   3.206400   3.346770   1.182280  -7.422760  -6.235720  -0.912909  -5.838290  -0.000000   0.000000   0.000000   3.656820  18.788300 -11.071800   1.085830   1.357580 -12.909000  -3.307430  -6.171610  -7.465740   0.000000   0.000000   0.000000
 -1.530770  89.355700  -1.414100   3.504990 -14.817800  14.957400  -0.015818  15.158300   5.970240  -1.838070  30.224200  12.649100   1.485620  -8.427380   0.217739   2.592360 -17.050200 -23.064800  -5.613520 -11.847100  -2.684400 -65.045600  29.082500  -9.495640  -3.864490 -13.728800 -23.389100  16.386700 -25.840100   8.626090  39.393500  32.545700 -65.188900 -30.032200   0.005181   0.003048 -10.016100   0.002991  -0.003181 -30.182700   5.586440  -9.506310 -25.075100   0.003245  -0.002077 -17.552600   0.007830   0.000105 -28.531000  -0.079142   0.145676 -36.516300   0.000208   0.002569 -24.319900  -0.002834   0.001312 -28.247300  -0.078405   0.146209 -33.778300   0.000274   0.000410 -22.496300  -0.003632   0.005210 -32.953100  -0.090140   0.139478 -49.429600   0.000082   0.001904 -32.920200  -0.003776  -0.001026   4.568420 -11.847600   6.858210  30.515500  -8.640180  38.976400 -21.038300 -23.038700   7.219460 -54.708500 -46.159300 -26.305200 -40.883800  43.335800  84.236800  38.366600  -0.003392  -0.001355  14.183400  -0.000495  -0.002613  88.996200   5.002930   0.087490  86.934400  -0.005396   0.004422  65.200700  -0.007028   0.005498  89.000000   0.002365   0.002610 108.849000  -0.002637   0.003755  79.994400   0.002719   0.002679  88.995500  -4.994880  -0.095218 109.999000  -0.003157   0.003729  80.000000   0.002595   0.002895  88.984600  -9.991950  -0.176299 110.000000   0.001593  -0.006835  80.000000  -0.005822  -0.001814   0.738089  15.033900   3.164100   3.326470   1.119320  -7.432850  -6.273680  -0.916700  -5.796000  -0.000000   0.000000   0.000000   3.651680  18.847400 -11.100700   1.091720   1.306140 -12.874600  -3.323380  -6.162850  -7.457660  -0.000000   0.000000   0.000000
 -1.520110  89.339700  -1.327740   3.513900 -14.796300  14.938500  -0.036439  15.143100   5.974590  -1.879680  30.191400  12.661000   1.457200  -8.448340   0.214107   2.544700 -17.097600 -22.862500  -5.604220 -11.812900  -2.685360 -65.191800  28.902600  -9.417270  -3.936120 -13.933000 -23.160600  16.317900 -25.919100   8.640760  39.430800  32.650200 -65.345100 -30.055500   0.005256   0.003109 -10.027800   0.003046  -0.003225 -30.189800   5.589330  -9.504060 -25.081100   0.003236  -0.002097 -17.556800   0.007878   0.000150 -28.525700  -0.107982   0.198702 -36.459100   0.000208   0.002572 -24.281800  -0.002832   0.001306 -28.289100  -0.107040   0.199307 -34.124400   0.000272   0.000405 -22.726800  -0.003634   0.005264 -33.078800  -0.123152   0.189913 -49.618300   0.000074   0.001912 -33.045800  -0.003778  -0.000992   4.441330 -11.796700   6.765860  30.473600  -9.427950  38.634200 -21.200600 -23.171200   6.783550 -55.435100 -45.735500 -26.763200 -40.722300  43.171500  84.010000  38.445900  -0.003510  -0.002513  14.223000  -0.000490  -0.002617  88.996200   5.002960   0.087493  86.814700  -0.005548   0.004611  65.110900  -0.007079   0.005646  89.000000   0.002322   0.002503 108.517000  -0.002734   0.003905  79.994400   0.002777   0.002748  88.995500  -4.994850  -0.095277 109.999000  -0.003225   0.003862  80.000000   0.002673   0.002989  88.984600  -9.991900  -0.176305 110.000000   0.001630  -0.006959  80.000000  -0.005873  -0.001912   0.771954  15.119400   3.121710   3.294480   1.056180  -7.434160  -6.305400  -0.930827  -5.710020  -0.000000   0.000000  -0.000000   3.656580  18.906000 -11.123300   1.090670   1.277090 -12.810000  -3.340190  -6.157460  -7.411850   0.000000   0.000000   0.000000
 -1.511940  89.324400  -1.235150   3.482480 -14.794100  14.826500  -0.051407  15.122300   5.968260  -1.905310  30.148700  12.648000   1.435740  -8.451610   0.211196   2.508270 -17.117400 -22.596500  -5.597960 -11.770300  -2.685880 -65.293000  28.752300  -9.360610  -4.001610 -14.127700 -22.886600  16.133400 -25.960500   8.622220  39.513800  32.822600 -65.571400 -30.040400   0.005328   0.003159 -10.020300   0.003104  -0.003269 -30.164400   5.614840  -9.552410 -25.064200   0.003233  -0.002113 -17.545000   0.007928   0.000190 -28.521200  -0.097980   0.180328 -36.400600   0.000213   0.002572 -24.242800  -0.002836   0.001305 -28.319500  -0.097260   0.180764 -34.380900   0.000269   0.000411 -22.897700  -0.003634   0.005309 -33.156500  -0.112081   0.172085 -49.734900   0.000077   0.001901 -33.123400  -0.003778  -0.000971   4.314950 -11.711000   6.696710  30.506600 -10.206300  38.295300 -21.278000 -23.374000   6.483540 -55.852600 -45.329300 -26.896300 -41.156500  43.618000  84.628100  38.270800  -0.003806  -0.005076  14.135400  -0.000489  -0.002631  88.996200   5.002980   0.087491  86.670800  -0.005694   0.004815  65.003100  -0.007123   0.005796  89.000000   0.002305   0.002402 108.184000  -0.002839   0.004085  80.068700   0.002832   0.002816  88.995500  -4.994810  -0.095331 109.999000  -0.003293   0.003998  80.000000   0.002765   0.003082  88.984600  -9.991840  -0.176295 110.000000   0.001669  -0.007075  80.000000  -0.005929  -0.001996   0.823861  15.234500   3.082000   3.255580   0.984872  -7.389770  -6.333180  -0.957138  -5.608960   0.000000   0.000000   0.000000   3.682420  18.962200 -11.154100   1.077960   1.270450 -12.736000  -3.351190  -6.165240  -7.312750  -0.000000   0.000000   0.000000
 -1.503980  89.309700  -1.134850   3.428960 -14.805600  14.629000  -0.063055  15.095900   5.953660  -1.922300  30.095000  12.619600   1.419510  -8.452080   0.208613   2.478750 -17.107100 -22.293200  -5.592050 -11.719400  -2.685800 -65.351900  28.643200  -9.314370  -4.062390 -14.312500 -22.587400  15.891900 -25.974100   8.571100  39.628900  33.020900 -65.816600 -30.009600   0.005403   0.003200 -10.004800   0.003163  -0.003313 -30.114000   5.646880  -9.628500 -25.028200   0.003232  -0.002128 -17.519700   0.007979   0.000228 -28.518600  -0.087978   0.161954 -36.365200   0.000218   0.002572 -24.219200  -0.002841   0.001303 -28.333500  -0.087480   0.162221 -34.502300   0.000267   0.000418 -22.978500  -0.003632   0.005353 -33.186300  -0.101009   0.154256 -49.779700   0.000081   0.001891 -33.153200  -0.003778  -0.000954   4.205570 -11.606700   6.630690  30.610300 -10.952000  37.968100 -21.284700 -23.575500   6.363410 -56.087000 -44.826500 -26.756600 -41.783900  44.200200  85.519900  37.998600  -0.004263  -0.008166  13.999300  -0.000488  -0.002650  88.996200   5.003000   0.087490  86.378800  -0.005848   0.005024  64.784100  -0.007163   0.005949  89.000000   0.002291   0.002305 107.697000  -0.002947   0.004269  80.142900   0.002890   0.002891  88.995500  -4.994780  -0.095382 109.999000  -0.003367   0.004140  80.000000   0.002860   0.003177  88.984600  -9.991790  -0.176284 110.000000   0.001712  -0.007187  80.000000  -0.005985  -0.002075   0.880649  15.377300   3.048170   3.216890   0.905145  -7.298740  -6.347960  -0.995619  -5.488800  -0.000000   0.000000   0.000000   3.713880  19.021300 -11.183200   1.059050   1.269800 -12.666400  -3.354930  -6.183850  -7.163650   0.000000   0.000000  -0.000000
